<?xml version="1.0" standalone="yes"?>
<svg xmlns="http://www.w3.org/2000/svg" width="512" height="512">
<path style="fill:#000000; stroke:none;" d="M0 0L0 512L193 512C187.771 508.481 182.485 506.37 178.638 500.999C173.698 494.103 173.081 485.118 171.754 477C169.361 462.359 166.918 447.693 164.87 433C155.311 364.435 147.2 295.798 139.834 227C137.632 206.433 136.688 185.435 133.571 165.004C132.475 157.823 122.302 155.776 124.218 148.005C126.363 139.302 135.797 142.264 142 140.566C145.157 139.702 147.595 137.419 149.671 134.985C166.628 115.099 170.316 86.2982 196 73.821C200.964 71.4093 206.579 70.6887 212 70C212 47.5288 206.59 18.8564 229 4.95447C232.12 3.01865 235.454 1.84232 239 1C232.806 -1.59906 223.686 0 217 0L168 0L0 0z"/>
<path style="fill:#ffffff; stroke:none;" d="M212 70C206.658 70.4222 200.936 71.1585 196 73.3488C169.51 85.1035 166.458 115.464 148.815 134.985C146.391 137.666 143.654 140.105 140 140.772C134.212 141.827 126.501 139.715 124.073 147.019C121.13 155.869 132.076 157.497 133.405 165.004C137.051 185.588 137.606 207.192 139.834 228C146.948 294.45 154.662 360.772 163.87 427C166.238 444.033 168.98 461.029 171.754 478C173.212 486.921 173.881 496.911 180.213 503.957C189.804 514.629 205.123 512 218 512C249.964 512 282.049 512.822 314 511.985C329.807 511.572 336.758 498.918 339.08 485C344.24 454.075 348.744 423.06 353 392C361.337 331.155 368.062 270.078 374.169 209C375.646 194.226 375.15 177.384 378.978 163.044C380.75 156.41 390.873 155.879 387.927 147.019C385.33 139.206 376.959 142.196 371 140.566C367.038 139.483 363.97 136.137 361.529 132.999C346.015 113.063 340.934 83.3037 315 72.9298C310.327 71.0604 304.988 70.3942 300 70L300 42C300 33.2208 300.162 24.8293 295.525 17C286.188 1.23657 271.503 0 255 0C240.043 0 226.894 1.4938 217.75 15.0038C207.743 29.7884 212 52.985 212 70z"/>
<path style="fill:#000000; stroke:none;" d="M273 0C279.076 3.84277 285.455 5.59448 290.535 11.1705C304.556 26.5579 300 50.8066 300 70C305.034 70.6395 310.324 71.2738 315 73.3488C340.77 84.7838 345.666 113.789 361.529 133.996C363.742 136.816 366.442 139.593 370 140.566C376.203 142.264 385.637 139.302 387.782 148.005C389.709 155.82 380.625 156.239 378.978 162.108C377.321 168.015 377.404 174.903 376.914 181C376.19 190.014 375.069 199 374.169 208C368.167 268.031 362.072 328.257 353.421 388C349.121 417.69 345.086 447.39 340.246 477C337.871 491.534 335.243 506.31 319 511C324.216 513.189 331.381 512 337 512L376 512L512 512L512 0L273 0M229 35L283 35C281.618 29.7162 280.383 25.0344 275.957 21.3935C267.324 14.2923 244.676 14.2923 236.043 21.3935C231.617 25.0344 230.382 29.7162 229 35M229 52L229 70L283 70L283 52L229 52M167 141L345 141C339.467 130.604 333.837 120.116 327.799 110C324.05 103.717 320.033 97.143 313.996 92.7894C305.385 86.5797 295.037 88 285 88L227 88C217.454 88 207.365 86.5851 199.001 92.108C192.424 96.4504 188.158 103.369 184.201 110C178.163 120.116 172.533 130.604 167 141M151 159L152 176L360 176L361 159L151 159M154 194C154.801 212.666 157.972 231.406 159.831 250C164.81 299.793 171.896 349.31 177.845 399C180.405 420.384 183.706 441.756 187.247 463C188.587 471.042 188.339 482.719 192.314 489.895C196.814 498.02 212.277 495 220 495L291 495C298.412 495 311.713 497.546 317.721 492.347C322.666 488.069 322.248 477.994 323.247 472C326.241 454.028 328.911 436.021 331.579 418C338.511 371.168 344.128 324.055 349.166 277C352.113 249.471 356.812 221.658 358 194L154 194z"/>
<path style="fill:#ffffff; stroke:none;" d="M325.044 212.743C317.963 215.589 316.53 234.57 318.653 240.957C320.181 245.556 325.412 248.011 329.981 246.254C337.315 243.434 336.952 230.541 336.995 224C337.01 221.723 337.135 219.196 336.258 217.044C334.501 212.734 329.257 211.05 325.044 212.743M320.015 265.746C311.733 268.893 312.64 283.69 312 291C309.805 316.062 305.836 341.019 302.845 366C301.996 373.094 298.323 391.814 311.995 388.156C321.223 385.687 320.195 370.609 321.05 363C323.97 337.006 327.089 310.919 330.576 285C331.517 277.999 332.626 260.955 320.015 265.746z"/>
</svg>
